<?xml version="1.0" encoding="utf-8"?>
<!-- Generator: Adobe Illustrator 22.0.0, SVG Export Plug-In . SVG Version: 6.00 Build 0)  -->
<svg version="1.1" id="Ebene_1" xmlns="http://www.w3.org/2000/svg" xmlns:xlink="http://www.w3.org/1999/xlink" x="0px" y="0px"
	 viewBox="0 0 31 31" style="enable-background:new 0 0 31 31;" xml:space="preserve">
<style type="text/css">
	.st0{fill:#E2E2E3;}
	.st1{fill:#494948;}
</style>
<circle class="st0" cx="15.5" cy="15.5" r="15.5"/>
<path class="st1" d="M12.07,19.93c-2.47-0.39-4.14-2.71-3.75-5.18c0.39-2.47,2.71-4.14,5.18-3.75V9c-0.41-0.04-0.83-0.04-1.24,0
	c-3.59,0.35-6.21,3.55-5.86,7.14c0.35,3.58,3.53,6.19,7.11,5.86v-2C13.03,20.05,12.54,20.03,12.07,19.93z"/>
<path class="st1" d="M24.64,20c-0.49,0.08-0.99,0.08-1.48,0c-1.8-0.34-3.22-1.74-3.58-3.54h3.72v-2h-3.68c0.56-2.24,2.71-3.7,5-3.39
	V9c-0.46-0.04-0.91-0.04-1.37,0c-3.59,0.38-6.19,3.6-5.81,7.19c0.38,3.59,3.6,6.19,7.19,5.81L24.64,20z"/>
</svg>
