<?xml version="1.0" encoding="utf-8"?>
<!-- Generator: Adobe Illustrator 22.0.0, SVG Export Plug-In . SVG Version: 6.00 Build 0)  -->
<svg version="1.1" id="Ebene_1" xmlns="http://www.w3.org/2000/svg" xmlns:xlink="http://www.w3.org/1999/xlink" x="0px" y="0px"
	 viewBox="0 0 31 31" style="enable-background:new 0 0 31 31;" xml:space="preserve">
<style type="text/css">
	.st0{fill:#E3E3E3;}
	.st1{fill:#494948;}
</style>
<g>
	<circle class="st0" cx="15.5" cy="15.5" r="15.5"/>
	<g>
		<path class="st1" d="M14.75,10.54h1.46v4.18h-1.46V10.54z M17.78,21.86V9.14c0,0,0-0.14-0.14-0.14h-4.32c0,0-0.14,0-0.14,0.14
			v12.71c0,0,0,0.14,0.14,0.14h1.25c0,0,0.14,0,0.14-0.14v-5.57h1.46v5.57c0,0,0,0.14,0.14,0.14h1.25C17.61,22,17.78,22,17.78,21.86
			 M22.13,20.43c0.14,0,0.14,0.14,0.14,0.14v1.29c0,0.14-0.14,0.14-0.14,0.14h-2.96c-0.14,0-0.14-0.14-0.14-0.14V9.14
			C19.03,9,19.17,9,19.17,9h2.96c0.14,0,0.14,0.14,0.14,0.14v1.25c0,0.14-0.14,0.14-0.14,0.14h-1.57v9.89H22.13z M10.29,20.43v-4.14
			h1.25c0,0,0.14,0,0.14-0.14v-1.25c0,0,0-0.14-0.14-0.14h-1.25v-4.18h1.25c0,0,0.14,0,0.14-0.14V9.18c0,0,0-0.14-0.14-0.14H8.87
			c0,0-0.14,0-0.14,0.14v12.68c0,0,0,0.14,0.14,0.14h2.68c0,0,0.14,0,0.14-0.14V20.6c0,0,0-0.14-0.14-0.14L10.29,20.43L10.29,20.43z
			"/>
	</g>
</g>
</svg>
