<?xml version="1.0" encoding="utf-8"?>
<!-- Generator: $$$/GeneralStr/196=Adobe Illustrator 27.6.0, SVG Export Plug-In . SVG Version: 6.00 Build 0)  -->
<svg version="1.1" id="Ebene_1" xmlns="http://www.w3.org/2000/svg" xmlns:xlink="http://www.w3.org/1999/xlink" x="0px" y="0px"
	 viewBox="0 0 300 800" style="enable-background:new 0 0 300 800;" xml:space="preserve">
<style type="text/css">
	.st0{fill:#25343F;}
	.st1{opacity:0.5;fill:#D3D6D9;enable-background:new    ;}
	.st2{fill:#E20020;}
</style>
<g id="rundung">
	<path class="st0" d="M44,399.5c0,137-13.2,270.9-38.4,400.5H4V0h1.8C30.9,129.3,44,262.9,44,399.5z"/>
</g>
<g id="linien-grau">
	<path class="st1" d="M65.3,0h-2c24.7,130.9,37.1,265.1,37.1,399.4S87.8,668.7,63,800h2c24.8-131.3,37.3-265.9,37.3-400.6
		S89.9,130.9,65.3,0z M193,0h-2c23.3,131.3,35.1,265.5,35.1,399.8S214.3,668.6,190.9,800h2c23.3-131.4,35.2-265.8,35.2-400.2
		S216.3,131.3,193,0z M128.8,0h-2c23.9,131,36,265,36,399.1S150.6,668.5,126.4,800h2c24.1-131.5,36.3-266.2,36.3-400.9
		S152.7,131,128.8,0z"/>
</g>
<g id="linien-rot">
	<path class="st2" d="M160.7,391.5c2,0.4,4,0.8,6,1.2c0,2.1,0,4.3,0,6.4c0,134.7-12.2,269.4-36.3,400.9h-6.1
		c24.2-131.5,36.4-266.2,36.4-400.9C160.8,396.5,160.7,394,160.7,391.5L160.7,391.5z M67.1,800c24.8-131.3,37.3-265.9,37.3-400.6
		c0-6,0-11.9-0.1-17.9c-2-0.3-4-0.6-6-1c0.1,6.3,0.1,12.6,0.1,18.9C98.4,534.1,85.8,668.7,61,800L67.1,800L67.1,800z M224.1,404.9
		C223.8,537.6,212,670.2,188.9,800h6.1c23-129.3,34.7-261.4,35.1-393.7C228.1,405.8,226.1,405.4,224.1,404.9z"/>
</g>
<rect class="st0" width="5" height="800"/>
</svg>
