<?xml version="1.0" encoding="utf-8"?>
<!-- Generator: Adobe Illustrator 22.0.0, SVG Export Plug-In . SVG Version: 6.00 Build 0)  -->
<svg version="1.1" id="Ebene_1" xmlns="http://www.w3.org/2000/svg" xmlns:xlink="http://www.w3.org/1999/xlink" x="0px" y="0px"
	 viewBox="0 0 31 31" style="enable-background:new 0 0 31 31;" xml:space="preserve">
<style type="text/css">
	.st0{fill:#E3E3E3;}
	.st1{clip-path:url(#SVGID_2_);fill:#673203;}
	.st2{fill:#9DB567;}
	.st3{fill:#FFFFFF;}
	.st4{clip-path:url(#SVGID_4_);}
	.st5{fill-rule:evenodd;clip-rule:evenodd;fill:#FFFFFF;}
	.st6{fill-rule:evenodd;clip-rule:evenodd;fill:#617F8E;}
	.st7{fill-rule:evenodd;clip-rule:evenodd;fill:#55707D;}
	.st8{fill-rule:evenodd;clip-rule:evenodd;fill:#779AAE;}
	.st9{fill-rule:evenodd;clip-rule:evenodd;fill:#EA5906;}
	.st10{fill-rule:evenodd;clip-rule:evenodd;fill:#EE7224;}
	.st11{fill-rule:evenodd;clip-rule:evenodd;fill:#A35016;}
	.st12{fill-rule:evenodd;clip-rule:evenodd;fill:#957355;}
</style>
<g>
	<circle class="st0" cx="15.5" cy="15.5" r="15.5"/>
	<g>
		<defs>
			<circle id="SVGID_1_" cx="15.5" cy="15.5" r="15.5"/>
		</defs>
		<clipPath id="SVGID_2_">
			<use xlink:href="#SVGID_1_"  style="overflow:visible;"/>
		</clipPath>
		<rect x="-0.75" y="13.68" class="st1" width="32.5" height="17.32"/>
	</g>
	<g>
		<polygon class="st2" points="10.45,8.43 12.25,6.63 14.3,8.67 19.48,3.49 21.28,5.29 14.3,12.27 		"/>
		<path class="st3" d="M19.48,3.9l1.39,1.39l-6.58,6.58l-3.44-3.44l1.39-1.39l2.05,2.05L19.48,3.9 M19.48,3.09l-0.41,0.41L14.3,8.27
			l-1.64-1.64l-0.41-0.41l-0.41,0.41l-1.39,1.39l-0.41,0.41l0.41,0.41l3.44,3.44l0.41,0.41l0.41-0.41l6.58-6.58l0.41-0.41
			l-0.41-0.41l-1.39-1.39L19.48,3.09L19.48,3.09z"/>
	</g>
	<g>
		<defs>
			<circle id="SVGID_3_" cx="15.5" cy="15.5" r="15.5"/>
		</defs>
		<clipPath id="SVGID_4_">
			<use xlink:href="#SVGID_3_"  style="overflow:visible;"/>
		</clipPath>
		<g class="st4">
			<g>
				<path class="st5" d="M14.98,26.13c-2.04,0-3.7-1.8-3.7-4.01s1.66-4.01,3.7-4.01h22.87v8.01H14.98z"/>
				<path class="st6" d="M14.98,18.52c-1.83,0-3.31,1.62-3.31,3.61c0,1.99,1.48,3.61,3.31,3.61h22.47v-7.22H14.98z"/>
				<g>
					<path class="st3" d="M37.46,20.34H19.14c-0.11,0-0.19-0.09-0.19-0.19s0.09-0.19,0.19-0.19h18.32c0.11,0,0.19,0.09,0.19,0.19
						S37.56,20.34,37.46,20.34z"/>
				</g>
				<path class="st7" d="M14.98,25.74h22.47v-1.4H12.39C12.99,25.18,13.92,25.74,14.98,25.74z"/>
				<g>
					<ellipse class="st8" cx="14.98" cy="22.13" rx="3.5" ry="3.81"/>
					<path class="st3" d="M14.98,18.52c1.83,0,3.31,1.62,3.31,3.61s-1.48,3.61-3.31,3.61s-3.31-1.62-3.31-3.61
						S13.16,18.52,14.98,18.52 M14.98,18.13c-2.04,0-3.7,1.79-3.7,4s1.66,4,3.7,4s3.7-1.79,3.7-4S17.02,18.13,14.98,18.13
						L14.98,18.13z"/>
				</g>
				<g>
					<path class="st9" d="M14.44,20.61H9.58v3.03h4.86c0.77,0,1.39-0.68,1.39-1.51C15.83,21.29,15.21,20.61,14.44,20.61z"/>
					<path class="st3" d="M14.44,23.81H9.41v-3.37h5.03c0.86,0,1.56,0.76,1.56,1.69C16,23.06,15.3,23.81,14.44,23.81z M9.75,23.47
						h4.69c0.67,0,1.22-0.6,1.22-1.34s-0.55-1.34-1.22-1.34H9.75V23.47z"/>
				</g>
				<ellipse class="st10" cx="9.58" cy="22.13" rx="1.39" ry="1.51"/>
				<path class="st3" d="M9.58,23.81c-0.86,0-1.56-0.76-1.56-1.69c0-0.93,0.7-1.69,1.56-1.69c0.86,0,1.56,0.76,1.56,1.69
					C11.14,23.06,10.44,23.81,9.58,23.81z M9.58,20.78c-0.67,0-1.22,0.6-1.22,1.34s0.55,1.34,1.22,1.34c0.67,0,1.22-0.6,1.22-1.34
					S10.25,20.78,9.58,20.78z"/>
			</g>
		</g>
	</g>
	<path class="st11" d="M5.4,16.26L5.04,16.8c-0.08,0.15-0.21,0.24-0.37,0.21L4,16.92c-0.16-0.03-0.41-0.11-0.44-0.27l-0.24-0.55
		c-0.03-0.16,0.06-0.5,0.21-0.57l0.57-0.29c0.15-0.08,0.65,0,0.77,0.11l0.46,0.46C5.45,15.94,5.48,16.12,5.4,16.26z"/>
	<path class="st11" d="M11.38,16.93l-0.24,0.6c-0.04,0.16-0.16,0.28-0.32,0.29l-0.67,0.06c-0.17,0.01-0.42-0.02-0.48-0.17
		l-0.35-0.48c-0.06-0.15-0.05-0.5,0.08-0.6l0.49-0.4c0.13-0.1,0.64-0.14,0.78-0.05l0.55,0.35C11.35,16.6,11.42,16.77,11.38,16.93z"
		/>
	<path class="st11" d="M19.35,27.15l0.12,0.64c0.05,0.16,0.02,0.32-0.12,0.41l-0.54,0.41c-0.13,0.1-0.37,0.21-0.5,0.11l-0.55-0.22
		c-0.13-0.1-0.31-0.4-0.25-0.55l0.2-0.6c0.05-0.16,0.46-0.46,0.63-0.46l0.65,0.01C19.15,26.89,19.3,26.99,19.35,27.15z"/>
	<path class="st11" d="M10.43,25.97l-0.17,0.62c-0.03,0.16-0.13,0.29-0.29,0.32L9.3,27.04c-0.16,0.03-0.42,0.03-0.5-0.12l-0.4-0.44
		c-0.08-0.15-0.1-0.49,0.02-0.61l0.45-0.45c0.12-0.12,0.62-0.21,0.77-0.13l0.58,0.29C10.37,25.64,10.45,25.8,10.43,25.97z"/>
	<path class="st11" d="M26.98,15.32l-0.17,0.62c-0.03,0.16-0.13,0.29-0.29,0.32l-0.66,0.13c-0.16,0.03-0.42,0.03-0.5-0.12l-0.4-0.44
		c-0.08-0.15-0.1-0.49,0.02-0.61l0.45-0.45c0.12-0.12,0.62-0.21,0.77-0.13l0.58,0.29C26.92,14.99,27,15.16,26.98,15.32z"/>
	<path class="st12" d="M3.56,19.11c0,0.18-0.19,0.33-0.43,0.33s-0.43-0.15-0.43-0.33c0-0.18,0.19-0.33,0.43-0.33
		S3.56,18.92,3.56,19.11z"/>
	<path class="st12" d="M5.88,20.6c0,0.18-0.19,0.33-0.43,0.33s-0.43-0.15-0.43-0.33c0-0.18,0.19-0.33,0.43-0.33
		S5.88,20.41,5.88,20.6z"/>
	<ellipse class="st12" cx="7" cy="25.11" rx="0.43" ry="0.33"/>
	<ellipse class="st12" cx="12.28" cy="27.05" rx="0.43" ry="0.33"/>
	<ellipse class="st12" cx="15.7" cy="28.76" rx="0.43" ry="0.33"/>
	<ellipse class="st12" cx="21.6" cy="27.47" rx="0.43" ry="0.33"/>
	<ellipse class="st12" cx="23" cy="15.96" rx="0.43" ry="0.33"/>
	<ellipse class="st12" cx="16.73" cy="14.88" rx="0.43" ry="0.33"/>
	<ellipse class="st12" cx="14.66" cy="15.96" rx="0.43" ry="0.33"/>
</g>
</svg>
