<?xml version="1.0" encoding="utf-8"?>
<!-- Generator: Adobe Illustrator 22.0.0, SVG Export Plug-In . SVG Version: 6.00 Build 0)  -->
<svg version="1.1" id="Ebene_1" xmlns="http://www.w3.org/2000/svg" xmlns:xlink="http://www.w3.org/1999/xlink" x="0px" y="0px"
	 viewBox="0 0 31 31" style="enable-background:new 0 0 31 31;" xml:space="preserve">
<style type="text/css">
	.st0{fill:#E3E3E3;}
	.st1{clip-path:url(#SVGID_2_);}
	.st2{fill-rule:evenodd;clip-rule:evenodd;fill:#637F8F;}
	.st3{fill:#FFFFFF;}
	.st4{fill-rule:evenodd;clip-rule:evenodd;fill:#57707E;}
	.st5{fill-rule:evenodd;clip-rule:evenodd;fill:#799AAE;}
	.st6{fill-rule:evenodd;clip-rule:evenodd;fill:#EA5B0C;}
	.st7{fill-rule:evenodd;clip-rule:evenodd;fill:#EE7326;}
	.st8{fill:#C1210D;}
	.st9{fill:#F7A941;}
</style>
<g>
	<circle class="st0" cx="15.5" cy="15.5" r="15.5"/>
	<g>
		<defs>
			<circle id="SVGID_1_" cx="15.5" cy="15.5" r="15.5"/>
		</defs>
		<clipPath id="SVGID_2_">
			<use xlink:href="#SVGID_1_"  style="overflow:visible;"/>
		</clipPath>
		<g class="st1">
			<g>
				<path class="st2" d="M17.4,8.9c-1.3,1.3-1.2,3.5,0.2,4.9c1.4,1.4,3.6,1.5,4.9,0.2L38.4-1.9L33.3-7L17.4,8.9z"/>
				<g>
					<path class="st3" d="M34.6-5.7l-13,13c-0.1,0.1-0.2,0.1-0.3,0c-0.1-0.1-0.1-0.2,0-0.3l13-13c0.1-0.1,0.2-0.1,0.3,0
						C34.7-5.9,34.7-5.7,34.6-5.7z"/>
				</g>
				<path class="st4" d="M22.5,14L38.4-1.9l-1-1L19.7,14.9C20.7,15.1,21.8,14.8,22.5,14z"/>
				<g>
					<ellipse transform="matrix(0.7071 -0.7071 0.7071 0.7071 -2.2754 17.4745)" class="st5" cx="20" cy="11.5" rx="3.5" ry="3.8"/>
					<path class="st3" d="M17.4,8.9c1.3-1.3,3.5-1.2,4.9,0.2s1.5,3.6,0.2,4.9c-1.3,1.3-3.5,1.2-4.9-0.2
						C16.2,12.4,16.1,10.2,17.4,8.9 M17.1,8.7c-1.4,1.4-1.3,3.9,0.2,5.4s4,1.7,5.4,0.2c1.4-1.4,1.3-3.9-0.2-5.4S18.6,7.2,17.1,8.7
						L17.1,8.7z"/>
				</g>
				<g>
					<path class="st6" d="M18.5,10.8l-3.4,3.4l2.1,2.1l3.4-3.4c0.5-0.5,0.5-1.5-0.1-2.1C20,10.3,19,10.3,18.5,10.8z"/>
					<path class="st3" d="M20.8,13.1l-3.6,3.6l-2.4-2.4l3.6-3.6c0.6-0.6,1.6-0.6,2.3,0.1C21.3,11.4,21.4,12.5,20.8,13.1z M17.2,16.1
						l3.3-3.3c0.5-0.5,0.4-1.3-0.1-1.8c-0.5-0.5-1.3-0.6-1.8-0.1l-3.3,3.3L17.2,16.1z"/>
				</g>
				
					<ellipse transform="matrix(0.7071 -0.7071 0.7071 0.7071 -6.0963 15.8916)" class="st7" cx="16.1" cy="15.3" rx="1.4" ry="1.5"/>
				<path class="st3" d="M17.3,16.5c-0.6,0.6-1.6,0.6-2.3-0.1s-0.7-1.7-0.1-2.3s1.6-0.6,2.3,0.1C17.9,14.9,17.9,15.9,17.3,16.5z
					 M15.2,14.4c-0.5,0.5-0.4,1.3,0.1,1.8s1.3,0.6,1.8,0.1c0.5-0.5,0.4-1.3-0.1-1.8C16.5,13.9,15.7,13.9,15.2,14.4z"/>
			</g>
		</g>
	</g>
	<g>
		<path class="st8" d="M16.5,17.8c-0.9,1.2-1.1,3.1-1.1,3.1c-2.5-2.5-1.8-6.3-1.8-6.3s-3.1,2.4-3.7,6.2C9.1,19.8,9.1,18,9.1,18
			s-1.7,2-2.2,3.3c-0.2,0.5-0.3,1-0.3,1.5c-0.2,3.2,2.2,6,5.4,6.2s6-2.2,6.2-5.4C18.3,20.8,16.6,20.2,16.5,17.8z"/>
		<path class="st9" d="M13.7,21c0,0,0.2,2.5-0.6,3.4c-1.6-1.5-0.7-4.8-0.7-4.8c-1.3,1.3-2.9,3.4-3,5.5c-0.1,1.7,1.2,3.2,2.9,3.3
			c1.7,0.1,3.2-1.2,3.3-2.9C15.6,23.5,13.7,21,13.7,21z"/>
	</g>
</g>
</svg>
