<?xml version="1.0" encoding="utf-8"?>
<!-- Generator: Adobe Illustrator 22.0.0, SVG Export Plug-In . SVG Version: 6.00 Build 0)  -->
<svg version="1.1" id="Ebene_1" xmlns="http://www.w3.org/2000/svg" xmlns:xlink="http://www.w3.org/1999/xlink" x="0px" y="0px"
	 viewBox="0 0 31 31" style="enable-background:new 0 0 31 31;" xml:space="preserve">
<style type="text/css">
	.st0{fill:#E3E3E3;}
	.st1{fill:#EE7224;}
	.st2{fill:#FFFFFF;}
	.st3{clip-path:url(#SVGID_2_);}
	.st4{fill-rule:evenodd;clip-rule:evenodd;fill:#617F8E;}
	.st5{fill-rule:evenodd;clip-rule:evenodd;fill:#55707D;}
	.st6{fill-rule:evenodd;clip-rule:evenodd;fill:#779AAE;}
	.st7{fill-rule:evenodd;clip-rule:evenodd;fill:#EA5906;}
	.st8{fill-rule:evenodd;clip-rule:evenodd;fill:#EE7224;}
</style>
<g>
	<circle class="st0" cx="15.5" cy="15.5" r="15.5"/>
	<path class="st1" d="M0.34,12.28h30.32C29.17,5.26,22.95,0,15.5,0S1.83,5.26,0.34,12.28z"/>
	<g>
		<path class="st2" d="M8.66,9.36c-0.04,0-0.06-0.02-0.06-0.06V7.4c0-0.35-0.13-0.52-0.38-0.52c-0.23,0-0.38,0.17-0.38,0.51V9.3
			c0,0.04-0.02,0.06-0.06,0.06H7.45c-0.04,0-0.06-0.02-0.06-0.06V7.4c0-0.34-0.12-0.52-0.38-0.52c-0.24,0-0.38,0.17-0.38,0.52v1.9
			c0,0.04-0.02,0.06-0.06,0.06H6.23c-0.04,0-0.06-0.02-0.06-0.06V6.57c0-0.04,0.02-0.06,0.06-0.06h0.34c0.03,0,0.06,0.02,0.06,0.06
			v0.23h0.01C6.73,6.6,6.9,6.45,7.18,6.45s0.48,0.11,0.57,0.34h0.01c0.11-0.21,0.3-0.34,0.6-0.34c0.47,0,0.71,0.28,0.71,0.88V9.3
			c0,0.04-0.02,0.06-0.06,0.06H8.66z"/>
		<path class="st2" d="M10.9,9.36c-0.04,0-0.06-0.02-0.06-0.06V9.06h-0.01c-0.08,0.22-0.28,0.36-0.54,0.36
			c-0.34,0-0.67-0.21-0.67-0.85c0-0.64,0.36-0.88,0.84-0.88h0.34c0.02,0,0.04-0.01,0.04-0.04V7.42c0-0.38-0.11-0.54-0.42-0.54
			c-0.21,0-0.35,0.08-0.48,0.19C9.9,7.09,9.86,7.09,9.84,7.04L9.73,6.81c-0.02-0.04-0.02-0.07,0.01-0.1
			c0.17-0.15,0.43-0.26,0.73-0.26c0.57,0,0.81,0.26,0.81,0.94V9.3c0,0.04-0.02,0.06-0.06,0.06H10.9z M10.84,8.5V8.11
			c0-0.02-0.01-0.04-0.04-0.04h-0.27c-0.34,0-0.47,0.17-0.47,0.48c0,0.31,0.13,0.47,0.36,0.47C10.67,9.02,10.84,8.81,10.84,8.5z"/>
		<path class="st2" d="M13.18,9.36c-0.04,0-0.06-0.01-0.08-0.05l-0.45-0.97h-0.01l-0.44,0.97c-0.02,0.04-0.03,0.05-0.08,0.05h-0.36
			c-0.04,0-0.05-0.03-0.03-0.07l0.68-1.41l-0.63-1.32c-0.02-0.04-0.01-0.06,0.03-0.06h0.36c0.04,0,0.06,0.01,0.08,0.05l0.41,0.88
			h0.01l0.39-0.88c0.02-0.04,0.03-0.05,0.08-0.05h0.35c0.04,0,0.05,0.02,0.03,0.06l-0.64,1.32l0.68,1.41
			c0.02,0.04,0.01,0.07-0.03,0.07H13.18z"/>
		<path class="st2" d="M14.01,8.8c0-0.04,0.02-0.06,0.06-0.06h0.39c0.03,0,0.06,0.02,0.06,0.06v0.5c0,0.04-0.02,0.06-0.06,0.06
			h-0.39c-0.03,0-0.06-0.02-0.06-0.06V8.8z"/>
		<path class="st2" d="M17.42,5.75V5.74h-0.8c-0.02,0-0.04,0.01-0.04,0.04v0.45c0,0.04-0.02,0.06-0.06,0.06h-0.31
			c-0.03,0-0.06-0.02-0.06-0.06V5.37c0-0.04,0.02-0.06,0.06-0.06h1.61c0.04,0,0.06,0.02,0.06,0.06v0.32c0,0.03-0.01,0.05-0.01,0.08
			L16.83,9.3c-0.01,0.04-0.03,0.06-0.08,0.06H16.4c-0.04,0-0.05-0.02-0.04-0.07L17.42,5.75z"/>
		<path class="st2" d="M18.45,7.34c0-1.27,0.02-1.42,0.07-1.55c0.11-0.35,0.39-0.53,0.79-0.53s0.67,0.18,0.79,0.53
			c0.04,0.13,0.06,0.28,0.06,1.55s-0.02,1.42-0.06,1.55c-0.11,0.35-0.39,0.53-0.79,0.53s-0.67-0.18-0.79-0.53
			C18.48,8.75,18.45,8.61,18.45,7.34z M19.31,8.98c0.18,0,0.3-0.08,0.35-0.24c0.03-0.08,0.04-0.2,0.04-1.41s-0.01-1.32-0.04-1.41
			c-0.05-0.15-0.17-0.24-0.35-0.24c-0.18,0-0.3,0.08-0.35,0.24c-0.02,0.08-0.04,0.2-0.04,1.41s0.01,1.32,0.04,1.41
			C19.01,8.9,19.12,8.98,19.31,8.98z"/>
		<path class="st2" d="M20.76,5.98c0-0.4,0.29-0.69,0.69-0.69c0.39,0,0.69,0.29,0.69,0.69c0,0.39-0.29,0.69-0.69,0.69
			C21.05,6.67,20.76,6.38,20.76,5.98z M21.84,5.98c0-0.23-0.15-0.41-0.39-0.41c-0.23,0-0.39,0.17-0.39,0.41
			c0,0.23,0.16,0.4,0.39,0.4C21.68,6.38,21.84,6.21,21.84,5.98z"/>
		<path class="st2" d="M23.08,7.34c0-1.15,0.02-1.32,0.07-1.48c0.13-0.38,0.41-0.6,0.87-0.6c0.53,0,0.85,0.29,0.91,0.91
			c0.01,0.04-0.01,0.07-0.05,0.07L24.54,6.3c-0.04,0.01-0.07-0.01-0.07-0.05c-0.03-0.36-0.17-0.54-0.45-0.54
			c-0.21,0-0.35,0.09-0.4,0.28c-0.04,0.11-0.05,0.23-0.05,1.35s0.02,1.23,0.05,1.35c0.06,0.19,0.19,0.28,0.4,0.28
			c0.28,0,0.42-0.18,0.45-0.54c0-0.04,0.03-0.05,0.07-0.05l0.34,0.07c0.04,0.01,0.05,0.03,0.05,0.07c-0.05,0.62-0.37,0.91-0.91,0.91
			c-0.46,0-0.74-0.22-0.87-0.6C23.1,8.65,23.08,8.49,23.08,7.34z"/>
	</g>
	<polygon class="st1" points="14.01,11.9 12.24,14.97 10.46,11.9 	"/>
	<g>
		<defs>
			<circle id="SVGID_1_" cx="15.5" cy="15.5" r="15.5"/>
		</defs>
		<clipPath id="SVGID_2_">
			<use xlink:href="#SVGID_1_"  style="overflow:visible;"/>
		</clipPath>
		<g class="st3">
			<g>
				<path class="st4" d="M14.98,18.52c-1.83,0-3.31,1.62-3.31,3.61c0,1.99,1.48,3.61,3.31,3.61h22.47v-7.22H14.98z"/>
				<g>
					<path class="st2" d="M37.46,20.34H19.14c-0.11,0-0.19-0.09-0.19-0.19s0.09-0.19,0.19-0.19h18.32c0.11,0,0.19,0.09,0.19,0.19
						S37.56,20.34,37.46,20.34z"/>
				</g>
				<path class="st5" d="M14.98,25.74h22.47v-1.4H12.39C12.99,25.18,13.92,25.74,14.98,25.74z"/>
				<g>
					<ellipse class="st6" cx="14.98" cy="22.13" rx="3.5" ry="3.81"/>
					<path class="st2" d="M14.98,18.52c1.83,0,3.31,1.62,3.31,3.61s-1.48,3.61-3.31,3.61s-3.31-1.62-3.31-3.61
						S13.16,18.52,14.98,18.52 M14.98,18.13c-2.04,0-3.7,1.79-3.7,4s1.66,4,3.7,4s3.7-1.79,3.7-4S17.02,18.13,14.98,18.13
						L14.98,18.13z"/>
				</g>
				<g>
					<path class="st7" d="M14.44,20.61H9.58v3.03h4.86c0.77,0,1.39-0.68,1.39-1.51C15.83,21.29,15.21,20.61,14.44,20.61z"/>
					<path class="st2" d="M14.44,23.81H9.41v-3.37h5.03c0.86,0,1.56,0.76,1.56,1.69C16,23.06,15.3,23.81,14.44,23.81z M9.75,23.47
						h4.69c0.67,0,1.22-0.6,1.22-1.34s-0.55-1.34-1.22-1.34H9.75V23.47z"/>
				</g>
				<ellipse class="st8" cx="9.58" cy="22.13" rx="1.39" ry="1.51"/>
				<path class="st2" d="M9.58,23.81c-0.86,0-1.56-0.76-1.56-1.69c0-0.93,0.7-1.69,1.56-1.69c0.86,0,1.56,0.76,1.56,1.69
					C11.14,23.06,10.44,23.81,9.58,23.81z M9.58,20.78c-0.67,0-1.22,0.6-1.22,1.34s0.55,1.34,1.22,1.34c0.67,0,1.22-0.6,1.22-1.34
					S10.25,20.78,9.58,20.78z"/>
			</g>
			<path d="M7.53,20.36l-1.22-1.22c-0.08-0.08-0.08-0.2,0-0.28c0.08-0.08,0.2-0.08,0.28,0l1.22,1.22c0.08,0.08,0.08,0.2,0,0.28
				C7.74,20.44,7.61,20.44,7.53,20.36z"/>
			<path d="M9.38,19.43v-1.72c0-0.11,0.09-0.2,0.2-0.2s0.2,0.09,0.2,0.2v1.72c0,0.11-0.09,0.2-0.2,0.2S9.38,19.54,9.38,19.43z"/>
			<path d="M9.78,24.82v1.72c0,0.11-0.09,0.2-0.2,0.2s-0.2-0.09-0.2-0.2v-1.72c0-0.11,0.09-0.2,0.2-0.2S9.78,24.71,9.78,24.82z"/>
			<path d="M7.81,24.18L6.6,25.39c-0.08,0.08-0.2,0.08-0.28,0s-0.08-0.2,0-0.28l1.22-1.22c0.08-0.08,0.2-0.08,0.28,0
				S7.89,24.1,7.81,24.18z"/>
			<path d="M6.88,22.33H5.16c-0.11,0-0.2-0.09-0.2-0.2s0.09-0.2,0.2-0.2h1.72c0.11,0,0.2,0.09,0.2,0.2S6.99,22.33,6.88,22.33z"/>
		</g>
	</g>
</g>
</svg>
