<?xml version="1.0" encoding="utf-8"?>
<!-- Generator: Adobe Illustrator 22.0.0, SVG Export Plug-In . SVG Version: 6.00 Build 0)  -->
<svg version="1.1" id="Ebene_1" xmlns="http://www.w3.org/2000/svg" xmlns:xlink="http://www.w3.org/1999/xlink" x="0px" y="0px"
	 viewBox="0 0 31 31" style="enable-background:new 0 0 31 31;" xml:space="preserve">
<style type="text/css">
	.st0{fill:#E3E3E3;}
	.st1{clip-path:url(#SVGID_2_);}
	.st2{fill-rule:evenodd;clip-rule:evenodd;fill:#637F8F;}
	.st3{fill:#FFFFFF;}
	.st4{fill-rule:evenodd;clip-rule:evenodd;fill:#57707E;}
	.st5{fill-rule:evenodd;clip-rule:evenodd;fill:#799AAE;}
	.st6{fill-rule:evenodd;clip-rule:evenodd;fill:#EA5B0C;}
	.st7{fill-rule:evenodd;clip-rule:evenodd;fill:#EE7326;}
	.st8{clip-path:url(#SVGID_4_);}
	.st9{fill:#F7A941;}
	.st10{fill:#9EB568;}
</style>
<g>
	<circle class="st0" cx="15.5" cy="15.5" r="15.5"/>
	<g>
		<defs>
			<circle id="SVGID_1_" cx="15.5" cy="15.5" r="15.5"/>
		</defs>
		<clipPath id="SVGID_2_">
			<use xlink:href="#SVGID_1_"  style="overflow:visible;"/>
		</clipPath>
		<g class="st1">
			<g>
				<path class="st2" d="M14.98,18.52c-1.83,0-3.31,1.62-3.31,3.61c0,1.99,1.48,3.61,3.31,3.61h22.47v-7.22H14.98z"/>
				<g>
					<path class="st3" d="M37.46,20.34H19.14c-0.11,0-0.19-0.09-0.19-0.19s0.09-0.19,0.19-0.19h18.32c0.11,0,0.19,0.09,0.19,0.19
						S37.56,20.34,37.46,20.34z"/>
				</g>
				<path class="st4" d="M14.98,25.74h22.47v-1.4H12.39C12.99,25.18,13.92,25.74,14.98,25.74z"/>
				<g>
					<ellipse class="st5" cx="14.98" cy="22.13" rx="3.5" ry="3.81"/>
					<path class="st3" d="M14.98,18.52c1.83,0,3.31,1.62,3.31,3.61s-1.48,3.61-3.31,3.61s-3.31-1.62-3.31-3.61
						S13.16,18.52,14.98,18.52 M14.98,18.13c-2.04,0-3.7,1.79-3.7,4s1.66,4,3.7,4s3.7-1.79,3.7-4S17.02,18.13,14.98,18.13
						L14.98,18.13z"/>
				</g>
				<g>
					<path class="st6" d="M14.44,20.61H9.58v3.03h4.86c0.77,0,1.39-0.68,1.39-1.51C15.83,21.29,15.21,20.61,14.44,20.61z"/>
					<path class="st3" d="M14.44,23.81H9.41v-3.37h5.03c0.86,0,1.56,0.76,1.56,1.69C16,23.06,15.3,23.81,14.44,23.81z M9.75,23.47
						h4.69c0.67,0,1.22-0.6,1.22-1.34s-0.55-1.34-1.22-1.34H9.75V23.47z"/>
				</g>
				<ellipse class="st7" cx="9.58" cy="22.13" rx="1.39" ry="1.51"/>
				<path class="st3" d="M9.58,23.81c-0.86,0-1.56-0.76-1.56-1.69c0-0.93,0.7-1.69,1.56-1.69c0.86,0,1.56,0.76,1.56,1.69
					C11.14,23.06,10.44,23.81,9.58,23.81z M9.58,20.78c-0.67,0-1.22,0.6-1.22,1.34s0.55,1.34,1.22,1.34c0.67,0,1.22-0.6,1.22-1.34
					S10.25,20.78,9.58,20.78z"/>
			</g>
		</g>
	</g>
	<g>
		<defs>
			<circle id="SVGID_3_" cx="15.5" cy="15.5" r="15.5"/>
		</defs>
		<clipPath id="SVGID_4_">
			<use xlink:href="#SVGID_3_"  style="overflow:visible;"/>
		</clipPath>
		<g class="st8">
			<g>
				<circle class="st9" cx="8.29" cy="2.74" r="5.5"/>
			</g>
			<g>
				<g>
					<path class="st9" d="M19.86,3.27h-3.81c-0.3,0-0.53-0.24-0.53-0.53s0.24-0.53,0.53-0.53h3.81c0.3,0,0.53,0.24,0.53,0.53
						S20.15,3.27,19.86,3.27z"/>
				</g>
				<g>
					<path class="st9" d="M18.31,9.06c-0.09,0-0.18-0.02-0.27-0.07l-3.3-1.91c-0.26-0.15-0.34-0.47-0.2-0.73
						c0.15-0.26,0.47-0.34,0.73-0.2l3.3,1.91c0.26,0.15,0.34,0.47,0.2,0.73C18.67,8.96,18.49,9.06,18.31,9.06z"/>
				</g>
				<g>
					<path class="st9" d="M14.08,13.29c-0.18,0-0.36-0.1-0.46-0.27l-1.91-3.3c-0.15-0.26-0.06-0.58,0.2-0.73
						c0.26-0.15,0.58-0.06,0.73,0.2l1.91,3.3c0.15,0.26,0.06,0.58-0.2,0.73C14.26,13.27,14.17,13.29,14.08,13.29z"/>
				</g>
				<g>
					<path class="st9" d="M8.29,14.84c-0.3,0-0.53-0.24-0.53-0.53v-3.81c0-0.3,0.24-0.53,0.53-0.53s0.53,0.24,0.53,0.53v3.81
						C8.83,14.6,8.59,14.84,8.29,14.84z"/>
				</g>
				<g>
					<path class="st9" d="M2.51,13.29c-0.09,0-0.18-0.02-0.27-0.07c-0.26-0.15-0.34-0.47-0.2-0.73l1.91-3.3
						c0.15-0.26,0.47-0.34,0.73-0.2c0.26,0.15,0.34,0.47,0.2,0.73l-1.91,3.3C2.88,13.19,2.7,13.29,2.51,13.29z"/>
				</g>
				<g>
					<path class="st9" d="M-1.72,9.06c-0.18,0-0.36-0.1-0.46-0.27c-0.15-0.26-0.06-0.58,0.2-0.73l3.3-1.91
						C1.57,6,1.9,6.09,2.04,6.35C2.19,6.6,2.1,6.93,1.85,7.08l-3.3,1.91C-1.54,9.03-1.63,9.06-1.72,9.06z"/>
				</g>
				<g>
					<path class="st9" d="M0.54,3.27h-3.81c-0.3,0-0.53-0.24-0.53-0.53S-3.57,2.2-3.27,2.2h3.81c0.3,0,0.53,0.24,0.53,0.53
						S0.84,3.27,0.54,3.27z"/>
				</g>
			</g>
		</g>
	</g>
	<g>
		<polygon class="st10" points="16.38,13.41 18.18,11.61 20.23,13.65 25.41,8.47 27.21,10.27 20.23,17.25 		"/>
		<path class="st3" d="M25.41,8.88l1.39,1.39l-6.58,6.58l-3.44-3.44l1.39-1.39l2.05,2.05L25.41,8.88 M25.41,8.06L25,8.47l-4.78,4.78
			l-1.64-1.64l-0.41-0.41l-0.41,0.41L16.38,13l-0.41,0.41l0.41,0.41l3.44,3.44l0.41,0.41l0.41-0.41l6.58-6.58l0.41-0.41l-0.41-0.41
			l-1.39-1.39L25.41,8.06L25.41,8.06z"/>
	</g>
</g>
</svg>
