<?xml version="1.0" encoding="utf-8"?>
<!-- Generator: Adobe Illustrator 22.0.0, SVG Export Plug-In . SVG Version: 6.00 Build 0)  -->
<svg version="1.1" id="Ebene_1" xmlns="http://www.w3.org/2000/svg" xmlns:xlink="http://www.w3.org/1999/xlink" x="0px" y="0px"
	 viewBox="0 0 31 31" style="enable-background:new 0 0 31 31;" xml:space="preserve">
<style type="text/css">
	.st0{fill:#E3E3E3;}
	.st1{fill:#494948;}
</style>
<g>
	<circle class="st0" cx="15.5" cy="15.5" r="15.5"/>
	<path class="st1" d="M12.17,17.87h-0.42l-1.58-4.81h0.54l1.25,3.89l1.25-3.89h0.54L12.17,17.87z M17.05,17.43
		c-0.29,0.29-0.72,0.45-1.22,0.45h-1.48v-4.81h1.48c0.5,0,0.92,0.16,1.22,0.45c0.5,0.5,0.47,1.24,0.47,1.9
		C17.52,16.08,17.55,16.93,17.05,17.43z M16.69,13.88c-0.25-0.26-0.57-0.35-0.94-0.35h-0.88v3.89h0.88c0.37,0,0.7-0.09,0.94-0.35
		c0.33-0.34,0.32-1.06,0.32-1.65C17.01,14.83,17.02,14.22,16.69,13.88z M18.49,17.87v-4.81h2.35v0.46H19v1.69h1.84v0.46H19v1.73
		h1.84v0.46H18.49z M9.19,18.01L2.05,15.5l7.14-2.51V18.01z M3.48,15.5l5.23,1.84v-3.68L3.48,15.5z M21.81,18.01v-5.03l7.14,2.51
		L21.81,18.01z M22.28,13.66v3.68l5.23-1.84L22.28,13.66z"/>
</g>
</svg>
