<?xml version="1.0" encoding="utf-8"?>
<!-- Generator: Adobe Illustrator 24.2.0, SVG Export Plug-In . SVG Version: 6.00 Build 0)  -->
<svg version="1.1" id="Ebene_1" xmlns="http://www.w3.org/2000/svg" xmlns:xlink="http://www.w3.org/1999/xlink" x="0px" y="0px"
	 viewBox="0 0 31.18 31.18" style="enable-background:new 0 0 31.18 31.18;" xml:space="preserve">
<style type="text/css">
	.st0{fill:#E3E3E3;}
	.st1{fill:#009EC0;}
	.st2{clip-path:url(#SVGID_2_);}
	.st3{fill:none;stroke:#FFFFFF;stroke-width:0.6476;stroke-linecap:round;stroke-linejoin:round;stroke-miterlimit:10;}
	.st4{fill:#DB973A;}
	.st5{fill:#FFFFFF;}
	.st6{fill:#9AA2A7;}
	.st7{fill:#494948;}
	.st8{fill:#9F702A;}
</style>
<g>
	<circle class="st0" cx="15.59" cy="15.59" r="15.59"/>
</g>
<g>
	<path class="st1" d="M0.34,12.35h30.49C29.34,5.29,23.09,0,15.59,0S1.84,5.29,0.34,12.35z"/>
</g>
<g>
	<defs>
		<circle id="SVGID_1_" cx="15.59" cy="15.59" r="15.59"/>
	</defs>
	<clipPath id="SVGID_2_">
		<use xlink:href="#SVGID_1_"  style="overflow:visible;"/>
	</clipPath>
	<g class="st2">
		<g>
			<g>
				<path class="st3" d="M21.61,24.03"/>
			</g>
		</g>
		<g>
			<g>
				<path class="st3" d="M23.15,24.42"/>
			</g>
		</g>
		<g>
			<g>
				<ellipse class="st4" cx="7.72" cy="19.04" rx="6.8" ry="8.01"/>
			</g>
			<g>
				<path class="st5" d="M7.72,27.29c-3.88,0-7.03-3.7-7.03-8.25c0-4.55,3.15-8.25,7.03-8.25c3.88,0,7.03,3.7,7.03,8.25
					C14.75,23.59,11.59,27.29,7.72,27.29z M7.72,11.26c-3.62,0-6.57,3.49-6.57,7.78s2.95,7.78,6.57,7.78s6.57-3.49,6.57-7.78
					S11.34,11.26,7.72,11.26z"/>
			</g>
		</g>
		<g>
			<g>
				<ellipse class="st6" cx="6.62" cy="19.33" rx="5.15" ry="6.06"/>
			</g>
			<g>
				<path class="st5" d="M6.62,25.62c-2.97,0-5.39-2.83-5.39-6.3c0-3.47,2.42-6.3,5.39-6.3s5.39,2.83,5.39,6.3
					C12.01,22.8,9.59,25.62,6.62,25.62z M6.62,13.51c-2.71,0-4.91,2.61-4.91,5.82s2.2,5.82,4.91,5.82s4.91-2.61,4.91-5.82
					S9.33,13.51,6.62,13.51z"/>
			</g>
		</g>
		<g>
			<g>
				<ellipse class="st6" cx="5.15" cy="19.18" rx="5.51" ry="6.26"/>
			</g>
			<g>
				<path class="st5" d="M5.15,25.69c-3.17,0-5.76-2.92-5.76-6.5s2.58-6.51,5.76-6.51s5.76,2.92,5.76,6.51S8.32,25.69,5.15,25.69z
					 M5.15,13.17c-2.9,0-5.27,2.7-5.27,6.02c0,3.32,2.36,6.01,5.27,6.01s5.27-2.7,5.27-6.01C10.42,15.87,8.05,13.17,5.15,13.17z"/>
			</g>
		</g>
		<g>
			<g>
				<path class="st5" d="M29.36,25.63c-11.6,0-14.96-1.4-16.5-4.75c-0.25-0.53-0.46-1.07-0.66-1.6c-0.98-2.49-1.82-4.64-5.84-5.72
					l-0.47-0.13l0.41-1.53l0.47,0.13c4.79,1.29,5.91,4.14,6.9,6.66c0.2,0.52,0.41,1.03,0.63,1.52c1.5,3.25,5.87,3.83,15.07,3.83
					h0.49v1.58H29.36z"/>
			</g>
		</g>
		<g>
			<g>
				<path class="st6" d="M29.36,25.14c-11.33,0-14.61-1.32-16.06-4.47c-0.24-0.52-0.45-1.06-0.65-1.58c-0.98-2.5-1.91-4.86-6.17-6
					l0.16-0.58c4.55,1.22,5.58,3.84,6.57,6.37c0.2,0.51,0.41,1.04,0.64,1.54c1.61,3.49,6.08,4.11,15.51,4.11V25.14z"/>
			</g>
		</g>
		<g>
			<g>
				<path class="st5" d="M15.28,26.51c-0.21,0-0.4-0.1-0.52-0.26c-0.12-0.17-0.16-0.38-0.1-0.58l0.45-1.49
					c0.07-0.23,0.28-0.39,0.52-0.39c0.06,0,0.12,0.01,0.18,0.03l0.43,0.15l1.25,0.2l-0.01-1.92c0-0.71,0.39-1.36,1.01-1.69
					l2.53-1.36c0.15-0.08,0.32-0.13,0.5-0.14c-0.04-0.14-0.06-0.29-0.06-0.44c0-0.88,0.72-1.59,1.59-1.59
					c0.88,0,1.59,0.72,1.59,1.59c0,0.85-0.67,1.54-1.5,1.59c0.09,0.2,0.16,0.41,0.19,0.62l0.26,1.95l1.34,1.19
					c0.14,0.13,0.23,0.31,0.23,0.5c0.01,0.19-0.07,0.38-0.2,0.51c-0.13,0.13-0.31,0.2-0.49,0.2l0,0c-0.17,0-0.33-0.06-0.46-0.17
					l-1.45-1.27l-0.21,1.16h0.12c0.41,0,0.74,0.33,0.74,0.74v0.66h-2.77l0.08-2.81l-0.96,0.39l-0.23,1.65
					c-0.05,0.37-0.37,0.65-0.75,0.65c-0.03,0-0.06,0-0.1-0.01l-2.38-0.31l-0.01,0.05c-0.1,0.35-0.42,0.59-0.78,0.59H15.28z"/>
			</g>
		</g>
		<g>
			<g>
				<path class="st7" d="M24.76,24.16l-1.41-1.25l-0.27-2.04c-0.05-0.36-0.2-0.7-0.44-0.97c0.13,0.04,0.26,0.07,0.41,0.07
					c0.75,0,1.35-0.6,1.35-1.35c0-0.75-0.6-1.35-1.35-1.35c-0.75,0-1.35,0.6-1.35,1.35c0,0.27,0.08,0.53,0.22,0.74
					c-0.25-0.09-0.54-0.08-0.79,0.06l-2.53,1.36c-0.54,0.29-0.88,0.86-0.88,1.48l0.01,2.21l-1.56-0.25l-0.45-0.16
					c-0.16-0.06-0.34,0.03-0.39,0.2l-0.45,1.49C14.81,26,15,26.27,15.28,26.27h0.01c0.25,0,0.47-0.17,0.54-0.41l0.07-0.26l2.59,0.34
					c0.28,0.04,0.53-0.16,0.57-0.44l0.25-1.79l1.44-0.59l-0.08,2.94h2.27v-0.41c0-0.27-0.22-0.5-0.5-0.5h-0.41l0.35-1.87l1.77,1.56
					c0.18,0.16,0.45,0.15,0.62-0.02C24.97,24.63,24.96,24.33,24.76,24.16z"/>
			</g>
		</g>
		<g>
			<g>
				<ellipse class="st4" cx="1.73" cy="18.88" rx="7.59" ry="9.1"/>
			</g>
			<g>
				<path class="st5" d="M1.73,28.21c-4.31,0-7.82-4.19-7.82-9.33s3.51-9.34,7.82-9.34s7.82,4.19,7.82,9.34S6.04,28.21,1.73,28.21z
					 M1.73,10c-4.06,0-7.36,3.98-7.36,8.87c0,4.89,3.3,8.87,7.36,8.87s7.36-3.98,7.36-8.87C9.09,13.98,5.78,10,1.73,10z"/>
			</g>
		</g>
		<g>
			<g>
				<ellipse class="st8" cx="1.73" cy="18.88" rx="1.89" ry="2.27"/>
			</g>
		</g>
	</g>
</g>
<g>
	<path class="st5" d="M15.59,7.98V7.67c0-0.04,0.02-0.06,0.06-0.06h1.39c0.04,0,0.06,0.02,0.06,0.06v0.31
		c0,0.04-0.02,0.06-0.06,0.06h-1.39C15.61,8.04,15.59,8.01,15.59,7.98z"/>
	<path class="st5" d="M17.68,8.5c0-0.04,0.02-0.07,0.05-0.07l0.32-0.03c0.04-0.01,0.07,0.01,0.07,0.05c0,0.21,0.01,0.28,0.03,0.34
		c0.05,0.16,0.17,0.24,0.35,0.24c0.19,0,0.3-0.08,0.35-0.23c0.02-0.07,0.04-0.14,0.04-0.68s-0.01-0.61-0.04-0.67
		c-0.05-0.16-0.17-0.24-0.35-0.24s-0.28,0.08-0.34,0.2c-0.02,0.04-0.04,0.05-0.09,0.05h-0.29c-0.04,0-0.06-0.02-0.06-0.06V5.4
		c0-0.04,0.02-0.06,0.06-0.06h1.52c0.04,0,0.06,0.02,0.06,0.06v0.31c0,0.04-0.02,0.06-0.06,0.06h-1.12c-0.02,0-0.04,0.01-0.04,0.04
		v1.16h0.01c0.1-0.11,0.26-0.19,0.46-0.19c0.36,0,0.58,0.16,0.68,0.47c0.04,0.13,0.06,0.25,0.06,0.88c0,0.57-0.02,0.7-0.06,0.82
		c-0.11,0.34-0.37,0.53-0.78,0.53c-0.41,0-0.68-0.2-0.79-0.54C17.69,8.82,17.68,8.69,17.68,8.5z"/>
	<path class="st5" d="M19.97,6.02c0-0.4,0.29-0.7,0.7-0.7c0.4,0,0.69,0.29,0.69,0.7c0,0.4-0.29,0.69-0.69,0.69
		C20.26,6.71,19.97,6.41,19.97,6.02z M21.05,6.02c0-0.23-0.16-0.41-0.39-0.41c-0.23,0-0.4,0.17-0.4,0.41c0,0.23,0.16,0.4,0.4,0.4
		C20.9,6.42,21.05,6.24,21.05,6.02z"/>
	<path class="st5" d="M22.31,7.38c0-1.16,0.02-1.33,0.07-1.49c0.13-0.38,0.41-0.6,0.88-0.6c0.53,0,0.86,0.29,0.91,0.91
		c0.01,0.04-0.01,0.07-0.05,0.07l-0.34,0.07c-0.04,0.01-0.07-0.01-0.07-0.05c-0.03-0.37-0.17-0.55-0.45-0.55
		c-0.22,0-0.35,0.09-0.41,0.28c-0.04,0.11-0.05,0.23-0.05,1.35s0.02,1.24,0.05,1.36c0.06,0.19,0.19,0.28,0.41,0.28
		c0.28,0,0.42-0.18,0.45-0.55c0-0.04,0.03-0.05,0.07-0.05l0.34,0.07c0.04,0.01,0.05,0.03,0.05,0.07c-0.05,0.62-0.38,0.91-0.91,0.91
		c-0.46,0-0.75-0.22-0.88-0.6C22.32,8.7,22.31,8.54,22.31,7.38z"/>
	<g>
		<path class="st5" d="M9.52,9.42c-0.04,0-0.06-0.02-0.06-0.06V7.44c0-0.35-0.13-0.52-0.38-0.52c-0.23,0-0.38,0.17-0.38,0.51v1.92
			c0,0.04-0.02,0.06-0.06,0.06H8.3c-0.04,0-0.06-0.02-0.06-0.06V7.44c0-0.34-0.12-0.52-0.38-0.52c-0.24,0-0.38,0.17-0.38,0.52v1.91
			c0,0.04-0.02,0.06-0.06,0.06H7.07c-0.04,0-0.06-0.02-0.06-0.06V6.6c0-0.04,0.02-0.06,0.06-0.06h0.34c0.04,0,0.06,0.02,0.06,0.06
			v0.23h0.01c0.09-0.19,0.26-0.34,0.55-0.34S8.51,6.6,8.6,6.83h0.01c0.11-0.21,0.31-0.34,0.6-0.34c0.47,0,0.71,0.28,0.71,0.88v1.98
			c0,0.04-0.02,0.06-0.06,0.06H9.52z"/>
		<path class="st5" d="M10.64,5.89c-0.04,0-0.06-0.02-0.06-0.06V5.4c0-0.04,0.02-0.06,0.06-0.06h0.38c0.04,0,0.06,0.02,0.06,0.06
			v0.43c0,0.04-0.02,0.06-0.06,0.06H10.64z M10.66,9.42c-0.04,0-0.06-0.02-0.06-0.06V6.6c0-0.04,0.02-0.06,0.06-0.06H11
			c0.04,0,0.06,0.02,0.06,0.06v2.75c0,0.04-0.02,0.06-0.06,0.06H10.66z"/>
		<path class="st5" d="M13.04,9.42c-0.04,0-0.06-0.02-0.06-0.06V7.44c0-0.34-0.12-0.52-0.38-0.52c-0.24,0-0.38,0.17-0.38,0.52v1.91
			c0,0.04-0.02,0.06-0.06,0.06h-0.34c-0.04,0-0.06-0.02-0.06-0.06V6.6c0-0.04,0.02-0.06,0.06-0.06h0.34c0.04,0,0.06,0.02,0.06,0.06
			v0.23h0.01c0.09-0.19,0.26-0.34,0.55-0.34c0.44,0,0.67,0.28,0.67,0.88v1.98c0,0.04-0.02,0.06-0.06,0.06H13.04z"/>
		<path class="st5" d="M13.84,8.83c0-0.04,0.02-0.06,0.06-0.06h0.39c0.04,0,0.06,0.02,0.06,0.06v0.5c0,0.04-0.02,0.06-0.06,0.06
			H13.9c-0.04,0-0.06-0.02-0.06-0.06V8.83z"/>
	</g>
</g>
</svg>
