<?xml version="1.0" encoding="utf-8"?>
<!-- Generator: Adobe Illustrator 22.0.0, SVG Export Plug-In . SVG Version: 6.00 Build 0)  -->
<svg version="1.1" id="Ebene_1" xmlns="http://www.w3.org/2000/svg" xmlns:xlink="http://www.w3.org/1999/xlink" x="0px" y="0px"
	 viewBox="0 0 31 31" style="enable-background:new 0 0 31 31;" xml:space="preserve">
<style type="text/css">
	.st0{fill:#E3E3E3;}
	.st1{clip-path:url(#SVGID_2_);fill:#58B1CD;}
	.st2{fill:#9DB567;}
	.st3{fill:#FFFFFF;}
	.st4{clip-path:url(#SVGID_4_);}
	.st5{fill-rule:evenodd;clip-rule:evenodd;fill:#FFFFFF;}
	.st6{fill-rule:evenodd;clip-rule:evenodd;fill:#617F8E;}
	.st7{fill-rule:evenodd;clip-rule:evenodd;fill:#55707D;}
	.st8{fill-rule:evenodd;clip-rule:evenodd;fill:#779AAE;}
	.st9{fill-rule:evenodd;clip-rule:evenodd;fill:#EA5906;}
	.st10{fill-rule:evenodd;clip-rule:evenodd;fill:#EE7224;}
</style>
<g>
	<circle class="st0" cx="15.5" cy="15.5" r="15.5"/>
	<g>
		<defs>
			<circle id="SVGID_1_" cx="15.5" cy="15.5" r="15.5"/>
		</defs>
		<clipPath id="SVGID_2_">
			<use xlink:href="#SVGID_1_"  style="overflow:visible;"/>
		</clipPath>
		<path class="st1" d="M32.03,32.67c-1.29,0.72-1.76-1.08-3.23-1.08c-1.48,0-1.48,1.15-2.95,1.15c-1.48,0-1.48-1.15-2.95-1.15
			c-1.48,0-1.48,1.15-2.95,1.15c-1.48,0-1.48-1.15-2.95-1.15c-1.48,0-1.48,1.15-2.95,1.15c-1.48,0-1.48-1.15-2.95-1.15
			c-1.48,0-1.48,1.15-2.95,1.15c-1.48,0-1.48-1.15-2.95-1.15c-1.48,0-1.48,1.15-2.96,1.15s-1.39-0.36-2.68-1.08
			c-0.72-0.4-0.86-0.32-0.86-1.14c0-0.82,1.15-0.82,1.15-1.64c0-0.82-1.15-0.82-1.15-1.64c0-0.82,1.15-0.82,1.15-1.64
			c0-0.82-1.15-0.82-1.15-1.64c0-0.82,1.15-0.82,1.15-1.64c0-0.82-1.15-0.82-1.15-1.65c0-0.82,1.15-0.82,1.15-1.64
			c0-0.82-1.15-0.82-1.15-1.65c0-0.82,1.15-0.82,1.15-1.65s-1.58-1.75-0.86-2.15c1.29-0.72,1.76,1.08,3.23,1.08
			c1.48,0,1.48-1.15,2.95-1.15c1.48,0,1.48,1.15,2.95,1.15c1.48,0,1.48-1.15,2.95-1.15c1.48,0,1.48,1.15,2.95,1.15
			c1.48,0,1.48-1.15,2.95-1.15c1.48,0,1.48,1.15,2.95,1.15c1.48,0,1.48-1.15,2.95-1.15c1.48,0,1.48,1.15,2.95,1.15
			c1.48,0,1.48-1.15,2.96-1.15s1.39,0.36,2.68,1.08c0.72,0.4,0.86,0.32,0.86,1.14c0,0.82-1.15,0.82-1.15,1.64
			c0,0.82,1.15,0.82,1.15,1.64c0,0.82-1.15,0.82-1.15,1.64c0,0.82,1.15,0.82,1.15,1.64c0,0.82-1.15,0.82-1.15,1.64
			c0,0.82,1.15,0.82,1.15,1.65c0,0.82-1.15,0.82-1.15,1.64c0,0.82,1.15,0.82,1.15,1.65c0,0.82-1.36,1.02-1.13,1.81
			C31.53,31.81,32.75,32.27,32.03,32.67z"/>
	</g>
	<g>
		<polygon class="st2" points="10.45,8.43 12.25,6.63 14.3,8.67 19.48,3.49 21.28,5.29 14.3,12.27 		"/>
		<path class="st3" d="M19.48,3.9l1.39,1.39l-6.58,6.58l-3.44-3.44l1.39-1.39l2.05,2.05L19.48,3.9 M19.48,3.09l-0.41,0.41L14.3,8.27
			l-1.64-1.64l-0.41-0.41l-0.41,0.41l-1.39,1.39l-0.41,0.41l0.41,0.41l3.44,3.44l0.41,0.41l0.41-0.41l6.58-6.58l0.41-0.41
			l-0.41-0.41l-1.39-1.39L19.48,3.09L19.48,3.09z"/>
	</g>
	<g>
		<defs>
			<circle id="SVGID_3_" cx="15.5" cy="15.5" r="15.5"/>
		</defs>
		<clipPath id="SVGID_4_">
			<use xlink:href="#SVGID_3_"  style="overflow:visible;"/>
		</clipPath>
		<g class="st4">
			<g>
				<path class="st5" d="M14.98,26.13c-2.04,0-3.7-1.8-3.7-4.01s1.66-4.01,3.7-4.01h22.87v8.01H14.98z"/>
				<path class="st6" d="M14.98,18.52c-1.83,0-3.31,1.62-3.31,3.61c0,1.99,1.48,3.61,3.31,3.61h22.47v-7.22H14.98z"/>
				<g>
					<path class="st3" d="M37.46,20.34H19.14c-0.11,0-0.19-0.09-0.19-0.19s0.09-0.19,0.19-0.19h18.32c0.11,0,0.19,0.09,0.19,0.19
						S37.56,20.34,37.46,20.34z"/>
				</g>
				<path class="st7" d="M14.98,25.74h22.47v-1.4H12.39C12.99,25.18,13.92,25.74,14.98,25.74z"/>
				<g>
					<ellipse class="st8" cx="14.98" cy="22.13" rx="3.5" ry="3.81"/>
					<path class="st3" d="M14.98,18.52c1.83,0,3.31,1.62,3.31,3.61s-1.48,3.61-3.31,3.61s-3.31-1.62-3.31-3.61
						S13.16,18.52,14.98,18.52 M14.98,18.13c-2.04,0-3.7,1.79-3.7,4s1.66,4,3.7,4s3.7-1.79,3.7-4S17.02,18.13,14.98,18.13
						L14.98,18.13z"/>
				</g>
				<g>
					<path class="st9" d="M14.44,20.61H9.58v3.03h4.86c0.77,0,1.39-0.68,1.39-1.51C15.83,21.29,15.21,20.61,14.44,20.61z"/>
					<path class="st3" d="M14.44,23.81H9.41v-3.37h5.03c0.86,0,1.56,0.76,1.56,1.69C16,23.06,15.3,23.81,14.44,23.81z M9.75,23.47
						h4.69c0.67,0,1.22-0.6,1.22-1.34c0-0.74-0.55-1.34-1.22-1.34H9.75V23.47z"/>
				</g>
				<ellipse class="st10" cx="9.58" cy="22.13" rx="1.39" ry="1.51"/>
				<path class="st3" d="M9.58,23.81c-0.86,0-1.56-0.76-1.56-1.69c0-0.93,0.7-1.69,1.56-1.69c0.86,0,1.56,0.76,1.56,1.69
					C11.14,23.06,10.44,23.81,9.58,23.81z M9.58,20.78c-0.67,0-1.22,0.6-1.22,1.34c0,0.74,0.55,1.34,1.22,1.34
					c0.67,0,1.22-0.6,1.22-1.34C10.8,21.39,10.25,20.78,9.58,20.78z"/>
			</g>
		</g>
	</g>
</g>
</svg>
